<?xml version="1.0" encoding="UTF-8"?>
<svg version="1.1" xmlns="http://www.w3.org/2000/svg" width="500" height="500">
<path d="M0 0 C165 0 330 0 500 0 C500 165 500 330 500 500 C335 500 170 500 0 500 C0 335 0 170 0 0 Z " fill="#FEFEFE" transform="translate(0,0)"/>
<path d="M0 0 C2.68701172 1.26831055 2.68701172 1.26831055 5.4296875 2.88671875 C6.46053467 3.4885498 7.49138184 4.09038086 8.5534668 4.71044922 C9.64957275 5.36287598 10.74567871 6.01530273 11.875 6.6875 C13.02918848 7.36562392 14.18390079 8.04285695 15.33911133 8.71923828 C17.72019718 10.11501956 20.09827405 11.51573102 22.47412109 12.92041016 C25.81375757 14.89322261 29.1649207 16.84570817 32.51953125 18.79296875 C41.35260096 23.92033337 50.17241497 29.06957115 58.9375 34.3125 C59.55262451 34.67972168 60.16774902 35.04694336 60.80151367 35.42529297 C64.87621288 37.87621288 64.87621288 37.87621288 66 39 C66.17479545 41.53723501 66.28465269 44.04894135 66.3515625 46.58984375 C66.37580292 47.3850795 66.40004333 48.18031525 66.42501831 48.99964905 C66.63681687 56.35883017 66.76129265 63.71989763 66.85931396 71.08139038 C66.92630181 76.02793827 67.02181782 80.97021083 67.18652344 85.91455078 C67.34506585 90.69482597 67.4291485 95.47120207 67.46209717 100.25393677 C67.48719704 102.07242424 67.53832992 103.8907539 67.61651611 105.70773315 C68.18481718 119.54389944 68.18481718 119.54389944 64.55624199 123.62302589 C60.99251723 126.48025462 57.07990296 128.39654065 52.89079189 130.16654873 C50.01923445 131.43231637 47.37572583 133.05003017 44.69140625 134.66796875 C42.64909654 135.84229273 40.60611664 137.01545187 38.5625 138.1875 C29.54906712 143.37302878 20.54653654 148.57620355 11.5625 153.8125 C10.54422119 154.40506592 9.52594238 154.99763184 8.47680664 155.6081543 C7.53699951 156.15640869 6.59719238 156.70466309 5.62890625 157.26953125 C4.80463135 157.75010986 3.98035645 158.23068848 3.13110352 158.72583008 C1.38970715 159.76699718 -0.31184188 160.87456125 -2 162 C-5.71979658 161.65535673 -8.46351958 160.39422827 -11.67578125 158.55078125 C-12.57385498 158.0395874 -13.47192871 157.52839355 -14.3972168 157.00170898 C-15.84028198 156.16555054 -15.84028198 156.16555054 -17.3125 155.3125 C-18.82807495 154.44443726 -18.82807495 154.44443726 -20.37426758 153.55883789 C-23.5877421 151.71424452 -26.79452598 149.85845678 -30 148 C-31.02319336 147.40864258 -32.04638672 146.81728516 -33.10058594 146.20800781 C-46.95721187 138.19416295 -46.95721187 138.19416295 -50.47827148 135.93017578 C-53.25942674 134.25141657 -56.02045971 133.32664306 -59.11743164 132.36279297 C-65.32520327 130.09790171 -70.29157323 127.64776157 -74 122 C-78.11267235 109.96340921 -76.52588911 95.65827004 -76.13104248 83.16668701 C-76.03962547 79.27662034 -76.07099547 75.39156754 -76.10395145 71.50087357 C-76.12378617 67.74032571 -76.07834063 63.98279597 -76.01217461 60.22286224 C-75.98603553 58.43218365 -75.97696725 56.64116651 -75.98579597 54.85031891 C-75.98605205 43.60277514 -75.98605205 43.60277514 -74 39 C-70.05375589 35.08543775 -66.11661215 33.19174927 -61 31 C-59.11637697 29.92051922 -57.24480695 28.81928486 -55.39453125 27.68359375 C-53.53487993 26.59980051 -51.67417453 25.5178142 -49.8125 24.4375 C-48.80727295 23.85250732 -47.8020459 23.26751465 -46.76635742 22.66479492 C-37.67975237 17.38204762 -28.57566008 12.12945994 -19.46606445 6.88647461 C-18.4318335 6.2910083 -17.39760254 5.69554199 -16.33203125 5.08203125 C-15.42171143 4.55843018 -14.5113916 4.0348291 -13.57348633 3.49536133 C-10.96845403 2.03532854 -10.96845403 2.03532854 -8.54174805 0.24487305 C-5.18743014 -1.3979727 -3.55544801 -1.01948844 0 0 Z " fill="#0A1A2F" transform="translate(260,176)"/>
<path d="M0 0 C25.74285714 0 25.74285714 0 31.375 5.1875 C33.53340565 8.92320209 33.70000507 11.7828963 33 16 C31.55914733 19.48838014 30.71251182 20.65202911 27.3125 22.3125 C26.549375 22.539375 25.78625 22.76625 25 23 C25 23.66 25 24.32 25 25 C25.59296875 25.16628906 26.1859375 25.33257812 26.796875 25.50390625 C30.17921064 27.80077602 30.96842834 31.22028831 32.25 34.9375 C32.518125 35.66646484 32.78625 36.39542969 33.0625 37.14648438 C34.16277019 40.20871595 35 42.72359021 35 46 C32.03 46 29.06 46 26 46 C25.59007812 44.86820312 25.18015625 43.73640625 24.7578125 42.5703125 C24.21383215 41.088435 23.66954537 39.60666996 23.125 38.125 C22.85558594 37.37863281 22.58617187 36.63226563 22.30859375 35.86328125 C20.76393439 31.56529918 20.76393439 31.56529918 18 28 C15.03 27.67 12.06 27.34 9 27 C9 33.27 9 39.54 9 46 C6.03 46 3.06 46 0 46 C0 30.82 0 15.64 0 0 Z " fill="#60F5D2" transform="translate(219,235)"/>
<path d="M0 0 C2.97 0 5.94 0 9 0 C9 6.27 9 12.54 9 19 C9.66 19 10.32 19 11 19 C11.21527344 18.47664063 11.43054688 17.95328125 11.65234375 17.4140625 C13.54036396 14.03204369 16.0245264 11.2866829 18.5625 8.375 C22.14573678 4.44179069 22.14573678 4.44179069 25 0 C28.3 0 31.6 0 35 0 C32.97487066 4.05025869 30.50191394 7.11986558 27.5625 10.5 C23.12999697 15.62765302 23.12999697 15.62765302 19 21 C20.34861799 23.92726104 21.89199382 26.25527389 23.96875 28.71484375 C24.53980469 29.40126953 25.11085938 30.08769531 25.69921875 30.79492188 C26.89781668 32.22101941 28.09833353 33.64550638 29.30078125 35.06835938 C32.20208027 38.56236169 34.68106063 41.5659341 36 46 C32.35888786 47.01500029 29.63464654 47.10312229 26 46 C21.24116769 42.11233986 17.63679748 36.90769768 14 32 C13.39027344 31.23171875 12.78054688 30.4634375 12.15234375 29.671875 C11 28 11 28 11 26 C10.34 26 9.68 26 9 26 C9 32.6 9 39.2 9 46 C6.03 46 3.06 46 0 46 C0 30.82 0 15.64 0 0 Z " fill="#61F7D4" transform="translate(262,235)"/>
<path d="M0 0 C10.33536091 -0.36912003 10.33536091 -0.36912003 13.328125 1.29296875 C15 3 15 3 15.5 6.5 C15 10 15 10 13.328125 11.70703125 C9.1106498 14.04928677 4.72527932 13.16875998 0 13 C0 8.71 0 4.42 0 0 Z " fill="#112B3C" transform="translate(228,242)"/>
</svg>
