<?xml version="1.0" encoding="UTF-8"?>
<svg version="1.1" viewBox="0 0 2000 2000" width="1280" height="1280" xmlns="http://www.w3.org/2000/svg">
<path transform="translate(0)" d="m0 0h2e3v2e3h-2e3z" fill="#FEFFFE"/>
<path transform="translate(998,755)" d="m0 0 6 1 21 12 26 15 22 13 26 15 17 10 26 15 24 14 29 17 26 15 34 20 1 1v302l-15 9-24 14-21 12-17 10-26 15-22 13-26 15-24 14-26 15-17 10-26 15-12 6-8-3-22-13-26-15-15-9-26-15-15-9-21-12-24-14-21-12-17-10-26-15-15-9-19-11-1-1v-303l18-10 22-13 26-15 22-13 26-15 24-14 26-15 27-16 28-16 22-13z" fill="#0A1B30"/>
<path transform="translate(888,987)" d="m0 0h58l15 2 9 3 10 8 5 8 3 12v10l-3 10-6 9-10 7-7 2 4 5 6 5 8 16 13 38v5l-2 1h-23l-3-4-13-37-6-12v-2l-10-3-21-1v58l-1 1h-25l-1-1-1-138z" fill="#6FFFE5"/>
<path transform="translate(1020,987)" d="m0 0h26l1 1v57l4-2 9-11 11-13 8-10 9-11 8-10 3-1h25l1 4-10 11-7 9-10 13-13 16-10 12 2 5 12 15 10 13 26 32 6 8-1 3h-30l-9-10-11-14-14-17-9-11-8-9-2-1v61l-1 1h-26z" fill="#6FFFE5"/>
<path transform="translate(915,1009)" d="m0 0h30l8 2 6 7 2 9-1 9-4 6-6 4-12 2h-21l-2-1z" fill="#0A1B30"/>
</svg>
